Model2392_S4_states																							
version=1																							
nRows=58																							
nColumns=24																							
inDegrees=yes																							
																							
"Units are S.I. units (second, meters, Newtons, ...)"																							
Angles are in degrees.																							
																							
endheader																							
time	pelvis_tilt	pelvis_list	pelvis_rotation	pelvis_tx	pelvis_ty	pelvis_tz	hip_flexion_r	hip_adduction_r	hip_rotation_r	knee_angle_r	ankle_angle_r	subtalar_angle_r	mtp_angle_r	hip_flexion_l	hip_adduction_l	hip_rotation_l	knee_angle_l	ankle_angle_l	subtalar_angle_l	mtp_angle_l	lumbar_extension	lumbar_bending	lumbar_rotation
1.8800173	0	0	0	0	0.95	0	6.55948902	0	0	-14.72402321	10.57478377	0	0	5.47407341	0	0	-35.61260675	-2.69416929	0	0	0	0	0
1.88008499	0	0	0	0	0.95	0	6.55039497	0	0	-14.72037745	10.57923896	0	0	5.48061799	0	0	-35.60922413	-2.6850736	0	0	0	0	0
1.88042346	0	0	0	0	0.95	0	6.50499131	0	0	-14.70224236	10.60109313	0	0	5.51329958	0	0	-35.59218109	-2.63951953	0	0	0	0	0
1.88119306	0	0	0	0	0.95	0	6.40217293	0	0	-14.66158104	10.64717999	0	0	5.587353	0	0	-35.55262329	-2.53540446	0	0	0	0	0
1.88229804	0	0	0	0	0.95	0	6.25559551	0	0	-14.60457618	10.70097255	0	0	5.69304554	0	0	-35.49386567	-2.38452133	0	0	0	0	0
1.88340303	0	0	0	0	0.95	0	6.11026662	0	0	-14.54915771	10.73686092	0	0	5.79798352	0	0	-35.43277186	-2.23223253	0	0	0	0	0
1.88470677	0	0	0	0	0.95	0	5.94037268	0	0	-14.48576566	10.75619557	0	0	5.92081694	0	0	-35.35762419	-2.05170647	0	0	0	0	0
1.8860105	0	0	0	0	0.95	0	5.77212048	0	0	-14.42454588	10.7561821	0	0	6.04258403	0	0	-35.27907284	-1.87187299	0	0	0	0	0
1.88760803	0	0	0	0	0.95	0	5.56806829	0	0	-14.35253397	10.74373895	0	0	6.1903316	0	0	-35.17804354	-1.65534654	0	0	0	0	0
1.88899982	0	0	0	0	0.95	0	5.39203639	0	0	-14.29236359	10.73494953	0	0	6.31774125	0	0	-35.08562478	-1.47278342	0	0	0	0	0
1.88944605	0	0	0	0	0.95	0	5.33590946	0	0	-14.27351591	10.73419181	0	0	6.35833179	0	0	-35.0551125	-1.41582878	0	0	0	0	0
1.88988541	0	0	0	0	0.95	0	5.2807803	0	0	-14.25513458	10.73475757	0	0	6.39817551	0	0	-35.02464767	-1.36060151	0	0	0	0	0
1.88997305	0	0	0	0	0.95	0	5.26980012	0	0	-14.25148719	10.73503621	0	0	6.40610772	0	0	-35.01852131	-1.34969223	0	0	0	0	0
1.88999818	0	0	0	0	0.95	0	5.2666516	0	0	-14.25044208	10.73512656	0	0	6.40838201	0	0	-35.01676101	-1.34656977	0	0	0	0	0
1.89000892	0	0	0	0	0.95	0	5.26530647	0	0	-14.24999569	10.73516659	0	0	6.40935361	0	0	-35.01600847	-1.34523656	0	0	0	0	0
1.89001966	0	0	0	0	0.95	0	5.26396142	0	0	-14.24954938	10.73520747	0	0	6.41032514	0	0	-35.01525569	-1.3439039	0	0	0	0	0
1.89007336	0	0	0	0	0.95	0	5.25723724	0	0	-14.24731907	10.7354247	0	0	6.4151817	0	0	-35.011488	-1.33724877	0	0	0	0	0
1.89034184	0	0	0	0	0.95	0	5.22364325	0	0	-14.23619741	10.73683602	0	0	6.43943718	0	0	-34.9925553	-1.30418016	0	0	0	0	0
1.89168426	0	0	0	0	0.95	0	5.05630813	0	0	-14.1811926	10.75231707	0	0	6.56002823	0	0	-34.89552636	-1.1442062	0	0	0	0	0
1.89341822	0	0	0	0	0.95	0	4.84164957	0	0	-14.11117552	10.79238131	0	0	6.71407104	0	0	-34.76434295	-0.95078069	0	0	0	0	0
1.89515218	0	0	0	0	0.95	0	4.62857666	0	0	-14.04169806	10.84953827	0	0	6.86611898	0	0	-34.62660003	-0.77022456	0	0	0	0	0
1.89688614	0	0	0	0	0.95	0	4.41698944	0	0	-13.97216605	10.91475197	0	0	7.01611415	0	0	-34.48242569	-0.59846982	0	0	0	0	0
1.8986201	0	0	0	0	0.95	0	4.20688119	0	0	-13.90244166	10.98029104	0	0	7.16400924	0	0	-34.33200465	-0.43052627	0	0	0	0	0
1.89921005	0	0	0	0	0.95	0	4.1357601	0	0	-13.87877018	11.00199802	0	0	7.21384287	0	0	-34.27943845	-0.37336382	0	0	0	0	0
1.89957147	0	0	0	0	0.95	0	4.09229016	0	0	-13.86431482	11.01515223	0	0	7.24424958	0	0	-34.24689312	-0.33820234	0	0	0	0	0
1.89980449	0	0	0	0	0.95	0	4.06430475	0	0	-13.85502119	11.02358889	0	0	7.26380538	0	0	-34.22577216	-0.31545181	0	0	0	0	0
1.89998738	0	0	0	0	0.95	0	4.0423648	0	0	-13.84774503	11.03019233	0	0	7.27912643	0	0	-34.20912074	-0.29754495	0	0	0	0	0
1.90000577	0	0	0	0	0.95	0	4.04016033	0	0	-13.84701451	11.03085552	0	0	7.28066536	0	0	-34.20744311	-0.29574204	0	0	0	0	0
1.90002416	0	0	0	0	0.95	0	4.03795608	0	0	-13.84628417	11.0315186	0	0	7.28220406	0	0	-34.20576481	-0.29393862	0	0	0	0	0
1.90011609	0	0	0	0	0.95	0	4.02693819	0	0	-13.84263533	11.03483261	0	0	7.28989391	0	0	-34.19736341	-0.28491374	0	0	0	0	0
1.90057574	0	0	0	0	0.95	0	3.97193464	0	0	-13.82447085	11.05138	0	0	7.32825254	0	0	-34.15510883	-0.23958002	0	0	0	0	0
1.90192554	0	0	0	0	0.95	0	3.81131296	0	0	-13.77214162	11.09992703	0	0	7.4400192	0	0	-34.02865134	-0.10419817	0	0	0	0	0
1.90327533	0	0	0	0	0.95	0	3.65215302	0	0	-13.72173963	11.14797205	0	0	7.55047739	0	0	-33.89863342	0.03439677	0	0	0	0	0
1.90462513	0	0	0	0	0.95	0	3.4945144	0	0	-13.67349541	11.19394281	0	0	7.65962404	0	0	-33.76498503	0.17491663	0	0	0	0	0
1.90668367	0	0	0	0	0.95	0	3.25694478	0	0	-13.60393993	11.25556968	0	0	7.82355688	0	0	-33.55393395	0.38779243	0	0	0	0	0
1.90874221	0	0	0	0	0.95	0	3.02249408	0	0	-13.53850123	11.30147681	0	0	7.98445392	0	0	-33.33381516	0.59038443	0	0	0	0	0
1.90941472	0	0	0	0	0.95	0	2.94650206	0	0	-13.51782937	11.31235823	0	0	8.03636366	0	0	-33.25988613	0.65273214	0	0	0	0	0
1.90967984	0	0	0	0	0.95	0	2.91661885	0	0	-13.50975863	11.3160598	0	0	8.05673955	0	0	-33.23046527	0.67666902	0	0	0	0	0
1.90987697	0	0	0	0	0.95	0	2.89442461	0	0	-13.50378378	11.31859489	0	0	8.07185844	0	0	-33.20848683	0.69421763	0	0	0	0	0
1.9099796	0	0	0	0	0.95	0	2.88287963	0	0	-13.50068194	11.3198411	0	0	8.07971806	0	0	-33.19701109	0.70326604	0	0	0	0	0
1.91000794	0	0	0	0	0.95	0	2.87969258	0	0	-13.49982638	11.32017637	0	0	8.08188715	0	0	-33.19383797	0.70575408	0	0	0	0	0
1.91003628	0	0	0	0	0.95	0	2.87650597	0	0	-13.49897124	11.32050779	0	0	8.08405567	0	0	-33.19066306	0.70823746	0	0	0	0	0
1.91017797	0	0	0	0	0.95	0	2.86057965	0	0	-13.49470186	11.32210752	0	0	8.09488978	0	0	-33.17476154	0.72058419	0	0	0	0	0
1.91088645	0	0	0	0	0.95	0	2.78111089	0	0	-13.47350254	11.32871407	0	0	8.1488478	0	0	-33.09457967	0.78050826	0	0	0	0	0
1.91194601	0	0	0	0	0.95	0	2.66274194	0	0	-13.44221736	11.33489878	0	0	8.22888329	0	0	-32.97256507	0.86430356	0	0	0	0	0
1.91350955	0	0	0	0	0.95	0	2.48906877	0	0	-13.39699306	11.34015682	0	0	8.34552979	0	0	-32.78794817	0.97550451	0	0	0	0	0
1.9146698	0	0	0	0	0.95	0	2.36095575	0	0	-13.36433198	11.34590714	0	0	8.43095515	0	0	-32.64748794	1.04969479	0	0	0	0	0
1.91618501	0	0	0	0	0.95	0	2.19466853	0	0	-13.32319882	11.36281964	0	0	8.54104184	0	0	-32.45974254	1.13897566	0	0	0	0	0
1.91770023	0	0	0	0	0.95	0	2.0295937	0	0	-13.28416567	11.39642508	0	0	8.6494395	0	0	-32.26729052	1.22395379	0	0	0	0	0
1.91921545	0	0	0	0	0.95	0	1.86576779	0	0	-13.24746775	11.44983402	0	0	8.75613178	0	0	-32.07033613	1.30950526	0	0	0	0	0
1.91968284	0	0	0	0	0.95	0	1.8154856	0	0	-13.23662477	11.47026774	0	0	8.78869686	0	0	-32.00870433	1.33671647	0	0	0	0	0
1.91986388	0	0	0	0	0.95	0	1.79604002	0	0	-13.23248386	11.47865511	0	0	8.80126738	0	0	-31.98472155	1.34741029	0	0	0	0	0
1.91996938	0	0	0	0	0.95	0	1.78471687	0	0	-13.23008594	11.48366038	0	0	8.8085811	0	0	-31.97071841	1.35368519	0	0	0	0	0
1.92000034	0	0	0	0	0.95	0	1.78139583	0	0	-13.22938449	11.48514512	0	0	8.81072534	0	0	-31.96660604	1.35553252	0	0	0	0	0
1.92001369	0	0	0	0	0.95	0	1.77996313	0	0	-13.22908215	11.48578797	0	0	8.81165025	0	0	-31.96483122	1.35633044	0	0	0	0	0
1.92002705	0	0	0	0	0.95	0	1.77853053	0	0	-13.22877998	11.48643217	0	0	8.81257502	0	0	-31.96305607	1.3571289	0	0	0	0	0
1.92009382	0	0	0	0	0.95	0	1.77136895	0	0	-13.22727176	11.48967339	0	0	8.81719688	0	0	-31.95417541	1.36112945	0	0	0	0	0
1.92042769	0	0	0	0	0.95	0	1.7355966	0	0	-13.21979572	11.50637117	0	0	8.84025612	0	0	-31.90964922	1.38134521	0	0	0	0	0
